{
  "accessors": [
    {
      "bufferView": 2,
      "componentType": 5126,
      "count": 11938,
      "max": [
        94.44509887695313,
        194.78114318847656,
        212.80165100097656
      ],
      "min": [
        -91.0286865234375,
        1.6810369491577148,
        -212.58705139160156
      ],
      "type": "VEC3"
    },
    {
      "bufferView": 2,
      "byteOffset": 143256,
      "componentType": 5126,
      "count": 11938,
      "max": [
        1.0,
        1.0,
        1.0
      ],
      "min": [
        -0.9999999403953552,
        -1.0,
        -1.0
      ],
      "type": "VEC3"
    },
    {
      "bufferView": 3,
      "componentType": 5126,
      "count": 11938,
      "max": [
        1.0,
        1.0,
        1.0,
        1.0
      ],
      "min": [
        -1.0,
        -1.0,
        -1.0,
        -1.0
      ],
      "type": "VEC4"
    },
    {
      "bufferView": 1,
      "componentType": 5126,
      "count": 11938,
      "max": [
        0.9918087720870972,
        0.9936320781707764
      ],
      "min": [
        0.012054316699504852,
        0.005249144043773413
      ],
      "type": "VEC2"
    },
    {
      "bufferView": 1,
      "byteOffset": 95504,
      "componentType": 5126,
      "count": 11938,
      "max": [
        1.0,
        1.0
      ],
      "min": [
        0.0,
        0.0
      ],
      "type": "VEC2"
    },
    {
      "bufferView": 0,
      "componentType": 5125,
      "count": 45351,
      "type": "SCALAR"
    }
  ],
  "asset": {
    "extras": {
      "author": "头戴胖次 (https://sketchfab.com/2251387929a)",
      "license": "CC-BY-4.0 (http://creativecommons.org/licenses/by/4.0/)",
      "source": "https://sketchfab.com/3d-models/vw-type-2-1963-5336a93b31a34c25a2450b249360ca2d",
      "title": "VW Type 2 1963"
    },
    "generator": "Sketchfab-13.90.0",
    "version": "2.0"
  },
  "bufferViews": [
    {
      "buffer": 0,
      "byteLength": 181404,
      "name": "floatBufferViews",
      "target": 34963
    },
    {
      "buffer": 0,
      "byteLength": 191008,
      "byteOffset": 181404,
      "byteStride": 8,
      "name": "floatBufferViews",
      "target": 34962
    },
    {
      "buffer": 0,
      "byteLength": 286512,
      "byteOffset": 372412,
      "byteStride": 12,
      "name": "floatBufferViews",
      "target": 34962
    },
    {
      "buffer": 0,
      "byteLength": 191008,
      "byteOffset": 658924,
      "byteStride": 16,
      "name": "floatBufferViews",
      "target": 34962
    }
  ],
  "buffers": [
    {
      "byteLength": 849932,
      "uri": "scene.bin"
    }
  ],
  "images": [
    {
      "uri": "textures/blinn1_baseColor.png"
    },
    {
      "uri": "textures/blinn1_metallicRoughness.png"
    },
    {
      "uri": "textures/blinn1_emissive.png"
    },
    {
      "uri": "textures/blinn1_normal.png"
    }
  ],
  "materials": [
    {
      "alphaMode": "BLEND",
      "doubleSided": true,
      "emissiveFactor": [
        1.0,
        1.0,
        1.0
      ],
      "emissiveTexture": {
        "index": 2
      },
      "name": "blinn1",
      "normalTexture": {
        "index": 3
      },
      "pbrMetallicRoughness": {
        "baseColorTexture": {
          "index": 0
        },
        "metallicRoughnessTexture": {
          "index": 1
        }
      }
    }
  ],
  "meshes": [
    {
      "name": "low_blinn1_0",
      "primitives": [
        {
          "attributes": {
            "NORMAL": 1,
            "POSITION": 0,
            "TANGENT": 2,
            "TEXCOORD_0": 3,
            "TEXCOORD_1": 4
          },
          "indices": 5,
          "material": 0,
          "mode": 4
        }
      ]
    }
  ],
  "nodes": [
    {
      "children": [
        1
      ],
      "matrix": [
        1.0,
        0.0,
        0.0,
        0.0,
        0.0,
        2.220446049250313e-16,
        -1.0,
        0.0,
        0.0,
        1.0,
        2.220446049250313e-16,
        0.0,
        0.0,
        0.0,
        0.0,
        1.0
      ],
      "name": "Sketchfab_model"
    },
    {
      "children": [
        2
      ],
      "matrix": [
        0.009999999776482582,
        0.0,
        0.0,
        0.0,
        0.0,
        0.0,
        0.009999999776482582,
        0.0,
        0.0,
        -0.009999999776482582,
        0.0,
        0.0,
        0.0,
        0.0,
        0.0,
        1.0
      ],
      "name": "8ad66631faba4ab783b4faa0cb4d18be.fbx"
    },
    {
      "children": [
        3
      ],
      "name": "RootNode"
    },
    {
      "children": [
        4
      ],
      "name": "low"
    },
    {
      "mesh": 0,
      "name": "low_blinn1_0"
    }
  ],
  "samplers": [
    {
      "magFilter": 9729,
      "minFilter": 9987,
      "wrapS": 10497,
      "wrapT": 10497
    }
  ],
  "scene": 0,
  "scenes": [
    {
      "name": "Sketchfab_Scene",
      "nodes": [
        0
      ]
    }
  ],
  "textures": [
    {
      "sampler": 0,
      "source": 0
    },
    {
      "sampler": 0,
      "source": 1
    },
    {
      "sampler": 0,
      "source": 2
    },
    {
      "sampler": 0,
      "source": 3
    }
  ]
}
